<?xml version="1.0" encoding="iso-8859-1"?>
<!-- Generator: Adobe Illustrator 19.0.0, SVG Export Plug-In . SVG Version: 6.00 Build 0)  -->
<svg version="1.1" id="Layer_1" xmlns="http://www.w3.org/2000/svg" xmlns:xlink="http://www.w3.org/1999/xlink" x="0px" y="0px"
	 viewBox="0 0 512 512" style="enable-background:new 0 0 512 512;" xml:space="preserve">
<rect x="421.74" y="219.052" style="fill:#ECB45C;" width="82.342" height="60.522"/>
<path style="fill:#F8E99B;" d="M240.165,303.505v-126.68c0-46.643,37.811-84.454,84.454-84.454h73.897l52.784,52.784v73.897
	c0,25.223-11.058,47.863-28.59,63.338"/>
<rect x="240.165" y="282.392" style="fill:#ECB45C;" width="31.67" height="31.67"/>
<rect x="29.031" y="314.062" style="fill:#797781;" width="443.381" height="52.784"/>
<rect x="166.268" y="292.948" style="fill:#58575D;" width="84.454" height="31.67"/>
<polygon style="fill:#88888F;" points="124.041,324.619 176.825,324.619 176.825,292.948 187.381,292.948 187.381,261.278 
	124.041,261.278 "/>
<polygon style="fill:#EFC27B;" points="208.495,187.381 208.495,219.052 176.825,219.052 176.825,292.948 240.165,292.948 
	240.165,187.381 "/>
<rect x="208.495" y="187.381" style="fill:#ECB45C;" width="31.67" height="31.67"/>
<path style="fill:#F6E27D;" d="M398.515,92.371h-73.897c-25.233,0-47.865,11.079-63.34,28.622v180.069l161.431-18.674
	c17.532-15.475,28.59-38.115,28.59-63.338v-73.897L398.515,92.371z"/>
<g>
	<path style="fill:#2E2D31;" d="M87.093,385.32c-7.277,0-13.196-5.919-13.196-13.196s5.919-13.196,13.196-13.196
		s13.196,5.919,13.196,13.196S94.37,385.32,87.093,385.32z M87.093,369.485c-1.455,0-2.639,1.184-2.639,2.639
		s1.184,2.639,2.639,2.639s2.639-1.184,2.639-2.639S88.548,369.485,87.093,369.485z"/>
	<path style="fill:#2E2D31;" d="M308.784,385.32c-7.277,0-13.196-5.919-13.196-13.196s5.919-13.196,13.196-13.196
		s13.196,5.919,13.196,13.196S316.06,385.32,308.784,385.32z M308.784,369.485c-1.455,0-2.639,1.184-2.639,2.639
		s1.184,2.639,2.639,2.639c1.455,0,2.639-1.184,2.639-2.639S310.238,369.485,308.784,369.485z"/>
	<path style="fill:#2E2D31;" d="M403.794,385.32c-7.277,0-13.196-5.919-13.196-13.196s5.919-13.196,13.196-13.196
		s13.196,5.919,13.196,13.196S411.071,385.32,403.794,385.32z M403.794,369.485c-1.455,0-2.639,1.184-2.639,2.639
		s1.184,2.639,2.639,2.639s2.639-1.184,2.639-2.639S405.249,369.485,403.794,369.485z"/>
	<path style="fill:#2E2D31;" d="M92.371,269.196h-31.67c-4.373,0-7.918-3.545-7.918-7.918s3.545-7.918,7.918-7.918h31.67
		c4.373,0,7.918,3.545,7.918,7.918S96.744,269.196,92.371,269.196z"/>
</g>
<path style="fill:#F8F8F9;" d="M282.881,103.417c-13.192,7.517-24.153,18.478-31.67,31.67l149.812,149.812l21.688-2.508
	c6.975-6.157,12.92-13.45,17.557-21.587L282.881,103.417z"/>
<circle style="fill:#F6E27D;" cx="208.495" cy="187.381" r="31.67"/>
<rect x="240.165" y="314.062" style="fill:#58575D;" width="232.247" height="52.784"/>
<circle style="fill:#88888F;" cx="87.093" cy="372.124" r="47.505"/>
<path style="fill:#EDEDED;" d="M87.093,385.32c-7.277,0-13.196-5.919-13.196-13.196s5.919-13.196,13.196-13.196
	s13.196,5.919,13.196,13.196S94.37,385.32,87.093,385.32z"/>
<circle style="fill:#797781;" cx="308.784" cy="372.124" r="47.505"/>
<path style="fill:#DBDBDB;" d="M308.784,385.32c-7.277,0-13.196-5.919-13.196-13.196s5.919-13.196,13.196-13.196
	s13.196,5.919,13.196,13.196S316.06,385.32,308.784,385.32z"/>
<circle style="fill:#797781;" cx="403.794" cy="372.124" r="47.505"/>
<path style="fill:#DBDBDB;" d="M403.794,385.32c-7.277,0-13.196-5.919-13.196-13.196s5.919-13.196,13.196-13.196
	s13.196,5.919,13.196,13.196S411.071,385.32,403.794,385.32z"/>
<polygon style="fill:#F8E99B;" points="92.371,145.155 7.918,229.608 7.918,366.845 29.031,366.845 60.701,324.619 134.598,324.619 
	134.598,145.155 "/>
<polygon style="fill:#D1E5F5;" points="92.371,145.155 60.7,145.155 7.918,197.937 7.918,229.608 92.371,229.608 "/>
<polygon style="fill:#B4D8F1;" points="7.918,229.608 92.371,229.608 92.371,145.155 "/>
<path style="fill:#EDEDED;" d="M282.881,103.417c-8.148,4.643-15.442,10.603-21.602,17.59v24.148l139.743,139.743l21.688-2.508
	c6.975-6.157,12.279-14.093,16.915-22.229L282.881,103.417z"/>
<polygon style="fill:#F6E27D;" points="240.165,366.845 282.392,324.619 430.186,324.619 472.412,366.845 504.082,335.175 
	451.299,282.392 261.278,282.392 208.495,335.175 "/>
<polygon style="fill:#EFC27B;" points="451.299,282.392 261.278,282.392 261.278,345.732 282.392,324.619 430.186,324.619 
	472.412,366.845 504.082,335.175 "/>
<g>
	<path style="fill:#2E2D31;" d="M92.371,253.361h-31.67c-4.373,0-7.918,3.545-7.918,7.918s3.545,7.918,7.918,7.918h31.67
		c4.373,0,7.918-3.545,7.918-7.918S96.744,253.361,92.371,253.361z"/>
	<path style="fill:#2E2D31;" d="M509.681,329.577l-39.268-39.268h33.67c4.373,0,7.918-3.545,7.918-7.918v-63.34
		c0-4.373-3.545-7.918-7.918-7.918h-44.866v-65.979c0-2.1-0.834-4.114-2.319-5.598l-52.784-52.784
		c-1.484-1.485-3.498-2.319-5.598-2.319h-73.897c-44.274,0-81.366,31.311-90.31,72.951c-6.937-5.981-15.956-9.611-25.813-9.611
		c-21.829,0-39.588,17.758-39.588,39.588c0,8.906,2.957,17.131,7.939,23.753h-0.021c-4.373,0-7.918,3.545-7.918,7.918v34.309
		h-26.392V145.156c0-4.373-3.545-7.918-7.918-7.918H60.7c-2.1,0-4.114,0.834-5.598,2.319L2.319,192.339
		C0.834,193.824,0,195.837,0,197.938v168.907c0,2.1,0.834,4.114,2.319,5.598c1.484,1.485,3.498,2.319,5.598,2.319h21.113
		c0.931,0,1.841-0.165,2.694-0.473c0.566,14.634,6.828,27.825,16.633,37.421h-8.771c-4.373,0-7.918,3.545-7.918,7.918
		s3.545,7.918,7.918,7.918h411.711c4.373,0,7.918-3.545,7.918-7.918s-3.545-7.918-7.918-7.918h-8.771
		c9.699-9.493,15.94-22.503,16.62-36.948h13.263c0.261,0,0.521-0.014,0.781-0.039c0.118-0.012,0.233-0.034,0.349-0.051
		c0.139-0.02,0.279-0.037,0.417-0.063c0.133-0.026,0.262-0.063,0.392-0.095c0.12-0.031,0.241-0.057,0.36-0.093
		c0.129-0.039,0.252-0.087,0.378-0.132c0.117-0.042,0.236-0.081,0.353-0.13c0.118-0.049,0.232-0.107,0.348-0.162
		c0.118-0.056,0.238-0.109,0.354-0.171c0.112-0.06,0.219-0.128,0.327-0.193c0.113-0.068,0.227-0.132,0.337-0.205
		c0.12-0.081,0.234-0.171,0.35-0.258c0.09-0.069,0.184-0.131,0.271-0.203c0.203-0.166,0.397-0.341,0.583-0.527l31.669-31.669
		C512.773,337.682,512.773,332.669,509.681,329.577z M496.165,274.474h-55.437c10.327-13.773,16.655-30.227,18.144-47.505h37.294
		V274.474z M395.237,100.289l48.145,48.145v70.618c0,9.779-1.886,19.349-5.422,28.247L296.374,105.713
		c8.745-3.486,18.27-5.424,28.244-5.424H395.237z M281.732,113.466l148.474,148.474c-3.055,4.515-6.605,8.72-10.611,12.536h-17.8
		L261.259,133.939C266.726,125.89,273.682,118.932,281.732,113.466z M348.371,372.124c0,21.829-17.758,39.588-39.588,39.588
		s-39.588-17.758-39.588-39.588s17.758-39.588,39.588-39.588S348.371,350.295,348.371,372.124z M347.518,332.536h17.54
		c-3.369,3.297-6.325,7.015-8.771,11.075C353.843,339.551,350.888,335.834,347.518,332.536z M140.915,358.928
		c-2.499-10.189-7.819-19.278-15.087-26.392h75.21c-0.984,2.786-0.371,6.009,1.858,8.237l18.154,18.154H140.915z M184.742,226.969
		h47.505v58.062h-47.505V226.969z M215.773,316.701h-31.03v-15.835h46.865L215.773,316.701z M248.082,176.825
		c0-9.974,1.938-19.499,5.424-28.244l125.895,125.894H261.278c-2.1,0-4.114,0.834-5.598,2.319l-7.598,7.598V176.825z
		 M184.742,187.381c0-13.098,10.655-23.753,23.753-23.753c13.098,0,23.753,10.655,23.753,23.753
		c0,13.098-10.655,23.753-23.753,23.753C195.397,211.134,184.742,200.479,184.742,187.381z M168.907,269.196v23.753v23.753h-26.392
		v-47.505H168.907z M126.68,316.702H15.835v-79.175h76.536c4.373,0,7.918-3.545,7.918-7.918v-76.535h26.392V316.702z M63.98,153.073
		h20.474v68.618H15.835v-20.474L63.98,153.073z M25.072,358.928h-9.237v-26.392h29.031L25.072,358.928z M47.505,372.124
		c0-21.822,17.748-39.576,39.568-39.588h0.04c21.82,0.011,39.568,17.765,39.568,39.588c0,21.829-17.758,39.588-39.588,39.588
		S47.505,393.953,47.505,372.124z M125.827,411.711c9.699-9.493,15.94-22.503,16.62-36.948h110.979
		c0.681,14.446,6.921,27.456,16.62,36.948H125.827z M347.518,411.711c3.369-3.298,6.325-7.015,8.771-11.075
		c2.446,4.06,5.401,7.777,8.771,11.075H347.518z M403.794,411.711c-21.829,0-39.588-17.758-39.588-39.588
		s17.758-39.588,39.588-39.588s39.588,17.758,39.588,39.588S425.623,411.711,403.794,411.711z M472.412,355.649l-36.629-36.629
		c-1.484-1.485-3.498-2.319-5.598-2.319H282.392c-2.1,0-4.114,0.834-5.598,2.319l-36.629,36.629l-20.474-20.474l44.866-44.866
		h183.462l44.866,44.866L472.412,355.649z"/>
</g>
<g>
</g>
<g>
</g>
<g>
</g>
<g>
</g>
<g>
</g>
<g>
</g>
<g>
</g>
<g>
</g>
<g>
</g>
<g>
</g>
<g>
</g>
<g>
</g>
<g>
</g>
<g>
</g>
<g>
</g>
</svg>
